<?xml version="1.0" standalone="no"?>
<!DOCTYPE svg PUBLIC "-//W3C//DTD SVG 20010904//EN"
 "http://www.w3.org/TR/2001/REC-SVG-20010904/DTD/svg10.dtd">
<svg version="1.0" xmlns="http://www.w3.org/2000/svg"
 width="800.000000pt" height="800.000000pt" viewBox="0 0 800.000000 800.000000"
 preserveAspectRatio="xMidYMid meet">

<g transform="translate(0.000000,800.000000) scale(0.100000,-0.100000)"
fill="#000000" stroke="none">
<path d="M1328 6459 c-250 -30 -450 -119 -593 -263 -81 -82 -119 -144 -161
-261 -25 -72 -30 -234 -10 -316 37 -149 136 -299 267 -403 111 -88 240 -145
549 -241 685 -213 913 -315 1220 -544 82 -61 460 -427 460 -446 0 -16 -288
-297 -382 -373 -98 -79 -248 -180 -357 -240 -204 -111 -359 -168 -1016 -377
-115 -37 -242 -82 -282 -101 -157 -75 -311 -222 -384 -366 -142 -281 -55 -617
207 -804 352 -252 945 -251 1324 1 86 57 195 166 239 239 115 192 120 352 16
573 -50 106 -100 162 -214 237 l-73 49 68 44 c89 58 187 107 354 178 383 163
699 313 952 451 l116 64 1229 -697 c675 -383 1268 -714 1316 -735 360 -156
779 -158 1144 -7 142 60 176 27 -360 341 -439 257 -649 380 -1817 1066 -729
428 -772 454 -763 463 4 4 143 88 308 185 540 318 1750 1031 2260 1332 275
162 501 295 503 297 6 5 -91 57 -159 85 -38 16 -118 42 -177 57 -99 26 -121
28 -297 28 -214 0 -316 -16 -510 -81 -159 -52 -212 -80 -735 -376 -991 -562
-1914 -1081 -1930 -1085 -9 -2 -92 36 -186 85 -93 48 -203 104 -244 124 -41
20 -138 66 -215 103 -77 37 -257 119 -400 182 -228 100 -446 211 -460 232 -2
4 18 24 45 45 70 54 182 174 214 231 81 144 103 312 59 450 -74 234 -306 440
-590 524 -147 44 -395 67 -535 50z m377 -343 c149 -51 254 -135 309 -249 119
-242 -37 -522 -321 -577 -98 -19 -262 -9 -351 23 -158 55 -291 165 -353 292
-31 63 -34 78 -34 155 0 78 3 90 34 147 41 77 123 156 196 189 91 42 166 54
310 50 110 -3 143 -7 210 -30z m46 -3414 c171 -47 288 -173 319 -340 22 -123
-22 -246 -125 -347 -111 -109 -268 -166 -460 -167 -186 -1 -310 46 -412 156
-76 82 -103 142 -103 231 1 200 194 401 450 469 80 21 250 20 331 -2z"/>
</g>
</svg>
