<?xml version="1.0" standalone="no"?>
<!DOCTYPE svg PUBLIC "-//W3C//DTD SVG 20010904//EN"
 "http://www.w3.org/TR/2001/REC-SVG-20010904/DTD/svg10.dtd">
<svg version="1.0" xmlns="http://www.w3.org/2000/svg"
 width="200.000000pt" height="200.000000pt" viewBox="0 0 200.000000 200.000000"
 preserveAspectRatio="xMidYMid meet">

<g transform="translate(0.000000,200.000000) scale(0.100000,-0.100000)"
fill="#000000" stroke="none">
<path d="M1520 1904 c-245 -31 -412 -58 -520 -84 -138 -33 -165 -43 -179 -67
-9 -15 -10 -14 -11 12 0 29 -20 75 -20 48 0 -24 -30 -14 -30 10 l0 22 -19 -24
c-16 -22 -19 -22 -28 -7 -15 27 -43 9 -43 -28 -1 -28 -2 -29 -14 -14 -12 17
-14 16 -24 -5 -10 -20 -11 -19 -11 16 -1 42 -5 44 -29 20 -16 -16 -17 -15 -22
13 -4 19 -8 25 -13 17 -11 -17 -37 -16 -37 1 0 9 -7 12 -20 9 -12 -3 -20 -13
-19 -22 3 -32 -1 -52 -9 -47 -5 3 -7 20 -6 38 3 30 3 31 -5 8 -5 -14 -10 -38
-11 -55 l-2 -30 -10 35 c-10 33 -11 34 -17 11 -6 -23 -7 -23 -24 -7 -9 10 -17
21 -17 26 0 4 -9 6 -20 3 -16 -4 -20 0 -20 18 l0 23 -20 -22 c-11 -12 -20 -26
-20 -33 0 -6 -6 -9 -14 -6 -16 6 -26 -31 -26 -95 0 -32 -3 -39 -15 -34 -8 3
-15 1 -15 -5 0 -5 7 -12 15 -15 8 -4 15 -11 15 -16 0 -6 -7 -7 -16 -4 -12 4
-14 1 -9 -13 4 -14 0 -23 -15 -31 -23 -13 -26 -38 -5 -46 8 -4 15 -13 15 -21
0 -8 4 -11 10 -8 5 3 10 1 10 -4 0 -6 -4 -11 -9 -11 -5 0 -11 -11 -13 -25 -4
-18 -1 -25 10 -25 11 0 12 -3 3 -14 -9 -11 -9 -15 1 -18 10 -4 9 -9 -4 -21
-11 -11 -33 -17 -63 -17 -32 0 -45 -4 -43 -12 3 -8 23 -12 54 -11 44 2 46 1
16 -6 -38 -10 -53 -22 -34 -28 24 -9 11 -23 -22 -23 -42 0 -65 -23 -45 -46 8
-10 23 -14 41 -12 21 4 27 1 24 -9 -5 -13 3 -16 39 -14 19 1 19 0 -3 -15 -12
-9 -22 -26 -23 -38 0 -11 -5 -30 -10 -41 -7 -15 -8 -10 -6 23 1 23 -1 42 -4
42 -8 0 -29 -112 -29 -152 0 -14 -7 -31 -15 -38 -12 -10 -12 -15 -1 -33 22
-35 38 -146 24 -171 -6 -11 -12 -51 -13 -88 -1 -37 -6 -73 -12 -80 -6 -8 -7
-55 -3 -123 5 -94 3 -117 -13 -155 -16 -38 -16 -51 -6 -94 7 -27 12 -63 11
-78 -1 -24 2 -27 23 -22 12 3 26 1 30 -5 3 -6 10 -9 15 -6 4 3 6 -4 3 -15 -8
-31 7 -23 18 10 13 37 25 38 33 4 5 -19 11 -24 26 -19 13 4 23 -1 32 -14 18
-29 28 -26 28 8 0 39 17 49 31 18 13 -29 49 -26 49 4 0 11 7 19 16 19 8 0 12
5 9 10 -3 6 3 10 14 10 12 0 21 -7 21 -16 0 -9 5 -12 12 -8 7 5 9 2 6 -8 -5
-13 7 -16 73 -21 44 -3 86 -10 94 -17 8 -6 19 -9 26 -5 6 4 36 9 67 11 159 10
221 14 262 19 25 3 61 5 80 5 19 0 44 4 55 9 11 5 38 13 60 18 22 5 39 14 38
20 -2 12 23 17 197 40 218 29 202 29 195 0 -9 -34 2 -52 20 -37 10 8 19 8 35
0 23 -12 40 -6 40 16 0 21 16 17 28 -8 6 -13 11 -17 11 -10 1 7 5 11 10 7 17
-10 41 26 41 60 0 18 4 35 9 37 16 5 16 128 0 138 -11 7 -10 10 4 16 26 10 20
27 -8 22 -27 -6 -33 9 -12 31 10 11 10 14 0 18 -20 7 -15 31 8 43 20 11 20 12
3 31 -17 18 -17 20 0 32 17 12 17 15 3 29 -9 9 -13 18 -10 21 3 3 1 19 -5 36
-10 28 -9 30 16 36 15 3 32 16 39 30 10 22 9 25 -8 25 -26 0 -24 10 9 36 l27
22 -27 11 c-16 6 -28 16 -29 23 -1 18 2 118 4 143 1 11 -3 19 -10 18 -7 -2
-13 2 -13 7 0 6 -7 10 -16 10 -14 0 -14 3 -3 16 10 13 10 17 -1 24 -9 6 -17 5
-22 -3 -4 -6 -10 -9 -13 -5 -4 3 1 18 10 32 17 25 17 26 -4 26 -27 0 -28 20
-1 27 11 3 20 10 20 15 0 5 4 7 9 3 6 -3 18 17 27 44 10 27 23 47 28 45 7 -3
11 34 11 108 0 62 3 146 8 187 7 65 6 73 -9 67 -12 -4 -15 -2 -10 9 3 8 1 15
-4 15 -5 0 -11 -10 -13 -22 -2 -13 -5 0 -6 28 0 27 4 55 11 62 7 7 8 12 3 12
-6 1 1 7 15 15 l25 14 -27 1 c-16 0 -28 5 -28 10 0 6 3 10 8 10 4 0 16 7 27
16 17 13 18 16 5 24 -8 5 -26 10 -39 10 -16 0 -21 4 -18 14 4 10 1 13 -9 9 -7
-3 -14 -1 -14 5 0 6 6 13 13 15 6 3 0 6 -14 6 -14 1 -34 8 -45 16 -23 17 -63
17 -204 -1z m130 -14 c0 -5 -8 -10 -17 -10 -15 0 -16 2 -3 10 19 12 20 12 20
0z m140 -195 c0 -9 -9 -15 -22 -15 -21 0 -21 0 -2 15 24 18 24 18 24 0z m-175
-125 c-27 -12 -35 -12 -35 0 0 6 12 10 28 9 24 0 25 -1 7 -9z m212 -172 c-3
-7 -5 -2 -5 12 0 14 2 19 5 13 2 -7 2 -19 0 -25z m-1547 -168 c0 -6 -23 -9
-52 -8 l-53 1 45 7 c25 4 48 8 53 8 4 1 7 -2 7 -8z m1527 -242 c-3 -8 -6 -5
-6 6 -1 11 2 17 5 13 3 -3 4 -12 1 -19z m-1262 -858 c17 -7 15 -9 -12 -9 -18
-1 -33 4 -33 9 0 12 17 12 45 0z"/>
<path d="M1040 100 c-36 -5 -125 -11 -197 -15 -73 -4 -133 -12 -133 -16 0 -5
17 -7 38 -4 20 2 117 10 215 16 97 6 177 16 177 20 0 10 -5 10 -100 -1z"/>
<path d="M663 63 c9 -2 23 -2 30 0 6 3 -1 5 -18 5 -16 0 -22 -2 -12 -5z"/>
</g>
</svg>
